<?xml version="1.0" standalone="no"?>
<!DOCTYPE svg PUBLIC "-//W3C//DTD SVG 20010904//EN"
 "http://www.w3.org/TR/2001/REC-SVG-20010904/DTD/svg10.dtd">
<svg version="1.0" xmlns="http://www.w3.org/2000/svg"
 width="450.000000pt" height="299.000000pt" viewBox="0 0 450.000000 299.000000"
 preserveAspectRatio="xMidYMid meet">
<metadata>
Created by potrace 1.10, written by Peter Selinger 2001-2011
</metadata>
<g transform="translate(0.000000,299.000000) scale(0.100000,-0.100000)"
fill="#000000" stroke="none">
<path d="M181 2945 c-30 -61 -22 -80 9 -21 25 47 50 67 50 41 0 -8 6 -15 14
-15 11 0 30 -27 26 -38 0 -1 6 -10 15 -18 8 -9 15 -22 15 -30 0 -27 18 -5 33
41 9 26 12 47 6 50 -5 4 -9 11 -9 16 0 6 4 8 9 4 5 -3 12 -1 16 5 9 15 -21 12
-33 -3 -6 -7 -10 -25 -9 -40 1 -14 -2 -26 -8 -26 -5 -1 -10 5 -10 12 -1 21
-55 67 -79 67 -17 0 -28 -11 -45 -45z"/>
<path d="M427 2961 c-9 -16 -17 -40 -17 -54 0 -13 -6 -30 -14 -36 -7 -6 -12
-21 -12 -34 1 -12 -3 -28 -8 -36 -9 -12 -7 -12 12 -2 18 10 22 9 22 -4 0 -8
-4 -15 -10 -15 -5 0 -10 -12 -10 -27 0 -21 3 -24 12 -15 20 20 39 85 26 93
-15 10 1 51 19 47 32 -6 38 -34 18 -80 -11 -23 -22 -45 -25 -48 -18 -17 -48
-96 -40 -104 13 -13 13 -29 1 -21 -11 6 -36 -33 -27 -43 3 -3 6 -1 7 4 0 5 7
-7 15 -26 l14 -35 -2 35 c-1 40 10 72 22 65 5 -3 12 0 15 5 5 7 12 5 21 -7 11
-14 13 -14 8 -2 -3 9 7 30 23 50 75 91 118 115 107 60 -4 -20 -2 -30 10 -34 9
-4 16 -13 16 -21 0 -18 30 -30 43 -17 14 14 -12 44 -30 36 -12 -4 -13 2 -8 28
12 53 23 59 59 32 19 -15 19 -15 -4 -40 l-23 -25 29 1 c16 1 43 5 59 10 l30 8
-30 -1 c-57 0 -62 1 -41 17 13 10 16 20 11 32 -5 10 -7 22 -6 27 1 5 -7 6 -19
3 -23 -6 -28 11 -5 19 22 9 65 -4 65 -20 0 -9 11 -13 33 -11 17 1 38 -3 45 -8
9 -7 12 -4 12 11 0 11 -5 22 -12 24 -17 6 -2 38 18 38 10 0 14 -5 10 -16 -3
-8 -2 -13 3 -10 12 8 7 62 -8 80 -10 12 -9 16 6 25 16 9 16 10 -4 11 -15 0
-23 -6 -23 -17 0 -16 -1 -16 -17 -1 -13 14 -14 20 -3 32 8 11 9 16 1 16 -6 0
-11 -5 -11 -11 0 -5 -4 -8 -9 -4 -5 3 -17 -3 -26 -12 -17 -16 -16 -18 14 -32
36 -17 47 -42 31 -71 -12 -23 -38 -26 -65 -6 -18 13 -18 14 4 41 25 32 13 48
-27 38 -19 -5 -23 -2 -20 13 2 10 14 21 28 24 19 4 21 8 11 14 -12 8 -11 11 4
23 14 9 15 13 4 13 -8 0 -23 -7 -33 -15 -25 -19 -36 -19 -36 0 0 26 -17 16
-34 -19 -15 -32 -62 -73 -73 -63 -9 9 15 42 46 62 42 27 39 35 -13 35 l-44 0
-6 -43 c-5 -29 -12 -44 -22 -44 -10 0 -13 6 -8 16 3 9 10 29 15 45 8 26 7 27
-9 13 -9 -8 -26 -17 -37 -19 -11 -2 -19 -9 -18 -16 2 -6 -2 -23 -8 -38 l-10
-27 -15 21 c-14 20 -13 25 2 52 10 16 27 31 38 33 12 2 5 5 -14 6 -29 1 -39
-4 -53 -28z m93 -81 c0 -5 -5 -12 -11 -16 -14 -8 -33 11 -25 25 7 11 36 4 36
-9z m120 6 c0 -7 -7 -19 -15 -26 -21 -17 -9 -30 28 -30 l32 0 -33 -31 c-29
-27 -34 -29 -48 -15 -9 9 -20 13 -26 10 -7 -5 -8 6 -4 32 9 48 66 100 66 60z
m80 -15 c-11 -21 -29 -36 -35 -29 -3 2 2 14 11 26 19 28 39 30 24 3z m-190
-88 c0 -44 -12 -64 -34 -58 -15 5 -17 4 -7 -3 10 -8 10 -12 -6 -23 -10 -8 -24
-26 -30 -41 -8 -19 -17 -26 -28 -22 -17 7 -21 24 -5 24 6 0 10 9 10 20 0 11 7
20 15 20 9 0 12 6 9 15 -4 8 -1 15 5 15 6 0 11 9 11 19 0 11 5 23 12 27 7 5 9
2 4 -7 -4 -8 1 -4 10 9 20 26 34 29 34 5z"/>
<path d="M1093 2979 c11 -6 30 -9 43 -6 20 3 24 0 24 -19 0 -13 8 -25 19 -29
31 -9 32 -31 3 -45 l-27 -12 23 -9 c35 -13 21 -34 -22 -32 -41 3 -45 -6 -16
-32 11 -10 17 -22 14 -27 -4 -6 -10 -6 -17 1 -6 6 -18 11 -26 11 -10 -1 -4
-11 19 -30 20 -18 28 -30 20 -30 -10 -1 -9 -4 5 -12 11 -6 29 -20 39 -30 24
-22 36 -23 36 -4 0 8 -14 26 -31 40 -44 37 -36 61 20 60 30 -1 49 4 62 17 23
23 24 29 5 29 -8 0 -16 -7 -20 -15 -7 -19 -36 -20 -36 -1 0 8 -3 22 -7 31 -5
15 -1 16 28 10 19 -4 38 -11 43 -16 5 -4 18 -3 29 2 13 8 22 8 30 0 11 -11
-22 -45 -54 -56 -8 -3 -23 -22 -32 -43 -20 -46 -21 -55 -4 -47 6 4 1 -2 -13
-13 -28 -23 -20 -43 10 -24 11 7 29 12 39 12 11 0 23 5 26 10 3 6 17 10 31 10
27 0 32 15 8 28 -11 6 -14 16 -9 31 8 27 31 27 38 1 3 -11 10 -20 17 -20 6 0
8 5 4 12 -14 22 -14 66 0 77 9 8 18 7 32 -3 18 -14 18 -15 1 -33 -28 -32 -19
-36 18 -7 19 14 35 30 35 34 0 4 -28 15 -62 25 -76 21 -80 23 -71 38 8 12 5
118 -4 127 -10 11 -20 -25 -13 -50 6 -20 4 -32 -9 -45 -9 -10 -10 -15 -3 -11
7 4 12 1 12 -8 0 -18 -40 -22 -56 -6 -7 7 -20 7 -34 2 -13 -5 -34 -7 -47 -4
-22 4 -22 5 -6 18 15 11 16 16 5 31 -7 10 -20 30 -30 45 -14 24 -24 28 -62 28
-37 -1 -42 -3 -27 -11z m270 -201 c-6 -7 -16 -30 -22 -50 -10 -30 -18 -38 -36
-38 -13 0 -26 4 -29 9 -7 11 67 91 84 91 9 0 9 -4 3 -12z"/>
<path d="M1287 2969 c-6 -23 7 -49 24 -49 14 0 11 34 -4 55 -13 17 -14 17 -20
-6z"/>
<path d="M1460 2980 c0 -5 -10 -10 -22 -10 -16 0 -19 -3 -11 -11 6 -6 20 -8
31 -5 25 8 38 36 17 36 -8 0 -15 -4 -15 -10z"/>
<path d="M1531 2974 c-7 -8 -11 -17 -10 -18 8 -7 49 14 49 24 0 15 -23 12 -39
-6z"/>
<path d="M1765 2980 c-27 -4 -78 -15 -113 -24 -34 -9 -66 -15 -70 -12 -4 2
-15 -2 -25 -9 -35 -25 14 -23 132 6 63 16 118 26 122 23 5 -3 21 2 36 10 l28
15 -30 -1 c-16 0 -52 -4 -80 -8z"/>
<path d="M1982 2963 c-17 -19 -20 -28 -11 -34 7 -4 18 -5 26 -2 8 3 19 -8 28
-28 l15 -34 -2 63 c-3 71 -17 80 -56 35z"/>
<path d="M2202 2974 c2 -11 10 -18 17 -16 7 1 11 -5 9 -15 -2 -14 -15 -19 -53
-21 -42 -3 -52 0 -66 20 -14 17 -21 20 -29 12 -7 -7 -10 -20 -8 -30 3 -14 12
-19 40 -19 20 0 39 -3 43 -7 4 -4 18 -2 32 5 21 9 27 8 38 -6 16 -22 35 -22
33 1 -3 41 2 49 27 44 23 -4 36 -22 16 -22 -5 0 -7 -9 -4 -20 3 -11 0 -20 -6
-20 -6 0 -11 -7 -11 -15 0 -8 9 -15 20 -15 16 0 20 7 20 38 0 29 4 38 18 40 9
1 40 6 67 11 l50 9 -45 1 c-26 0 -52 7 -59 14 -6 6 -29 13 -49 14 -20 1 -52 5
-70 8 -30 7 -33 5 -30 -11z"/>
<path d="M2520 2974 c31 -10 67 -12 115 -8 118 10 97 24 -36 23 -122 -1 -123
-1 -79 -15z"/>
<path d="M3365 2968 c1 -13 3 -28 4 -34 0 -5 20 -11 44 -13 32 -1 39 1 30 10
-6 6 -23 12 -37 12 -21 0 -26 4 -26 23 0 13 -4 24 -9 24 -4 0 -7 -10 -6 -22z"/>
<path d="M3623 2960 c-1 -17 2 -30 6 -30 16 0 31 27 25 44 -10 26 -29 18 -31
-14z"/>
<path d="M3742 2978 c5 -15 37 -18 41 -3 1 6 -9 12 -22 13 -16 3 -22 -1 -19
-10z"/>
<path d="M4260 2968 c0 -13 -3 -32 -6 -44 -6 -22 -8 -22 84 -26 17 0 32 -5 32
-9 0 -5 29 -9 65 -9 77 0 88 14 12 16 -112 3 -175 33 -163 77 2 10 -1 17 -10
17 -8 0 -14 -10 -14 -22z"/>
<path d="M3217 2973 c-4 -3 -7 -18 -7 -32 l1 -26 14 25 c8 14 14 28 15 33 0 9
-14 9 -23 0z"/>
<path d="M3682 2964 c2 -11 11 -20 22 -22 13 -3 17 1 14 14 -2 11 -11 20 -22
22 -13 3 -17 -1 -14 -14z"/>
<path d="M1475 2929 c-4 -6 -5 -12 -3 -14 7 -7 48 7 48 16 0 13 -37 11 -45 -2z"/>
<path d="M1132 2919 c2 -7 10 -15 17 -17 8 -3 12 1 9 9 -2 7 -10 15 -17 17 -8
3 -12 -1 -9 -9z"/>
<path d="M1007 2913 c-11 -11 -8 -20 8 -20 8 0 15 6 15 14 0 14 -12 17 -23 6z"/>
<path d="M1944 2911 c9 -14 -17 -30 -72 -42 -29 -6 -52 -15 -52 -19 0 -5 -17
-12 -37 -16 -21 -4 -53 -18 -71 -32 -26 -20 -38 -23 -51 -15 -13 8 -20 5 -34
-13 -20 -26 -18 -28 40 -38 22 -4 33 -1 37 10 4 11 17 13 63 8 32 -4 63 -10
68 -13 6 -3 35 -4 65 -1 l55 5 -47 13 c-26 6 -70 12 -97 12 -29 0 -51 5 -51
10 0 12 116 70 138 70 18 0 82 52 76 62 -3 4 -12 8 -20 8 -8 0 -13 -4 -10 -9z"/>
<path d="M2685 2911 c-3 -5 -2 -11 2 -13 15 -8 36 -3 41 10 4 14 -34 17 -43 3z"/>
<path d="M3284 2912 c-27 -17 2 -82 37 -82 25 0 24 30 -1 37 -21 5 -28 33 -9
33 5 0 7 5 4 10 -7 12 -16 12 -31 2z"/>
<path d="M895 2900 c-3 -5 -1 -10 4 -10 6 0 11 -8 11 -17 0 -14 2 -15 13 -4
10 11 9 14 -1 18 -6 3 -10 9 -6 14 3 5 1 9 -5 9 -5 0 -13 -4 -16 -10z"/>
<path d="M1069 2891 c13 -12 28 -21 35 -21 12 0 -5 14 -39 31 -16 8 -15 6 4
-10z"/>
<path d="M1397 2904 c-11 -11 5 -34 23 -34 11 0 22 -4 25 -10 3 -5 17 -10 30
-10 13 0 27 -5 30 -10 4 -7 12 -7 25 0 34 18 67 -39 39 -67 -7 -7 -8 -17 -1
-28 13 -24 20 -8 28 58 8 66 1 95 -20 78 -10 -9 -16 -8 -26 4 -16 19 -31 19
-24 0 5 -12 -2 -15 -31 -15 -28 0 -38 5 -42 20 -5 19 -41 28 -56 14z"/>
<path d="M960 2885 c-17 -21 -8 -28 15 -11 11 8 14 15 8 19 -6 4 -16 0 -23 -8z"/>
<path d="M190 2875 c0 -18 24 -30 40 -20 8 5 5 11 -7 21 -24 18 -33 17 -33 -1z"/>
<path d="M1730 2865 c0 -26 0 -26 24 -8 27 20 25 33 -5 33 -14 0 -19 -7 -19
-25z"/>
<path d="M2114 2866 c-7 -20 2 -46 16 -46 13 0 13 47 0 55 -6 3 -13 -1 -16 -9z"/>
<path d="M4265 2872 c-17 -12 -35 -51 -35 -75 0 -21 4 -24 38 -21 20 1 81 2
135 3 74 1 98 4 94 14 -3 9 -36 12 -120 12 -63 0 -119 3 -123 7 -3 4 1 19 10
34 18 26 18 38 1 26z"/>
<path d="M280 2835 c0 -9 -7 -18 -15 -21 -22 -9 -19 -33 3 -27 11 3 19 15 20
34 1 16 0 29 -3 29 -3 0 -5 -7 -5 -15z"/>
<path d="M925 2838 c-22 -12 -45 -37 -45 -50 0 -4 9 -3 19 4 11 7 18 15 15 19
-2 4 5 9 15 12 23 6 34 -15 18 -33 -9 -10 -9 -11 3 -8 9 3 14 15 12 29 -4 32
-13 40 -37 27z"/>
<path d="M4071 2846 c2 -2 18 -6 34 -10 22 -5 26 -4 15 4 -14 9 -59 15 -49 6z"/>
<path d="M3580 2826 c0 -9 40 -13 46 -5 3 5 -6 9 -20 9 -14 0 -26 -2 -26 -4z"/>
<path d="M1515 2800 c-10 -17 12 -37 25 -24 8 8 6 15 -4 23 -10 9 -16 9 -21 1z"/>
<path d="M3200 2800 c0 -5 9 -11 20 -11 11 -1 25 -2 32 -3 6 -1 13 5 16 12 2
8 -8 12 -32 12 -20 0 -36 -4 -36 -10z"/>
<path d="M2037 2715 l5 -85 -37 0 c-19 0 -47 -7 -61 -16 -20 -14 -30 -15 -51
-5 -14 6 -34 9 -44 6 -25 -8 -25 16 -1 38 9 9 50 27 91 40 41 13 69 27 63 31
-6 4 -20 2 -30 -3 -30 -16 -105 -41 -125 -41 -15 0 -16 3 -6 23 12 22 12 22
-9 3 -22 -19 -72 -16 -72 4 0 6 -7 10 -15 10 -8 0 -15 -5 -15 -11 0 -7 -11 -8
-31 -4 -29 7 -30 6 -18 -14 16 -24 7 -37 -18 -26 -10 5 -21 8 -25 7 -4 -1 -12
7 -18 17 -7 14 -19 19 -45 17 -30 -1 -37 3 -42 22 -7 29 -44 52 -40 25 1 -10
12 -28 24 -40 14 -14 20 -29 16 -42 -9 -36 -22 -34 -40 6 -10 21 -22 41 -28
45 -13 9 -26 -14 -15 -27 4 -5 8 -14 8 -20 0 -14 32 -116 43 -137 13 -25 11
-61 -2 -53 -6 4 -5 -3 3 -15 11 -19 11 -23 -7 -34 -25 -14 -87 -77 -82 -82 2
-3 16 0 30 5 22 9 25 7 30 -15 3 -16 0 -24 -10 -24 -8 0 -11 -5 -8 -10 4 -7
87 -10 233 -9 217 2 480 14 365 17 -29 1 -53 7 -53 12 0 6 -24 22 -52 35 -29
14 -48 26 -43 26 24 4 42 6 70 8 l30 2 -25 11 -25 11 23 5 c13 2 37 -1 54 -7
42 -15 53 -14 38 4 -7 8 -27 15 -45 15 -20 0 -35 6 -39 15 -3 8 -12 12 -20 9
-19 -7 -81 49 -72 65 4 6 15 11 25 11 9 0 23 6 29 12 10 10 17 10 33 0 27 -17
39 -6 14 12 -18 13 -17 14 8 30 33 22 44 16 52 -32 12 -73 23 -67 30 19 7 90
3 188 -9 207 -4 7 -15 12 -25 12 -16 0 -18 -8 -14 -85z m-427 -42 c0 -10 -6
-12 -20 -8 -15 5 -18 3 -14 -9 3 -9 10 -13 15 -10 5 3 9 0 9 -5 0 -21 -38 -11
-44 12 -10 39 -7 44 24 39 18 -2 30 -10 30 -19z m184 -15 c21 4 21 4 1 -12
-38 -30 -96 -9 -81 29 5 14 9 14 33 -2 15 -10 36 -16 47 -15z m-144 -48 c4 0
10 9 13 20 5 21 41 28 52 10 6 -9 -21 -59 -38 -71 -15 -10 -44 1 -67 26 l-22
23 21 7 c12 3 22 12 22 18 1 7 4 2 6 -10 2 -13 8 -23 13 -23z m-100 5 c5 -14
14 -25 20 -25 7 0 8 -17 4 -50 -6 -45 -5 -50 10 -44 11 4 16 14 13 25 -6 22 8
33 30 25 12 -5 13 -9 3 -20 -9 -12 -7 -17 9 -25 30 -17 34 -14 28 19 -4 17 -2
30 2 30 5 0 23 11 39 25 30 25 58 27 127 10 38 -10 55 -23 55 -42 0 -12 -7
-14 -27 -10 -17 3 -36 0 -47 -9 -11 -8 -31 -14 -45 -14 -33 -1 -105 -50 -110
-75 -10 -56 -40 -57 -67 -2 -13 27 -28 43 -42 45 -15 2 -22 10 -22 26 0 12 -5
27 -12 34 -8 8 -8 15 2 28 12 14 12 17 -3 26 -13 7 -15 13 -7 29 14 26 29 24
40 -6z m345 -135 c18 -20 17 -20 -23 -20 -53 0 -66 -19 -15 -22 21 0 44 -1 51
-1 6 1 12 -5 12 -12 0 -8 -19 -13 -56 -14 -46 -1 -61 2 -75 18 -26 28 -24 39
14 55 45 20 71 19 92 -4z m-315 -72 c16 -18 30 -38 30 -44 0 -25 -28 -45 -69
-50 -40 -5 -43 -4 -38 15 3 12 1 23 -4 26 -15 10 22 85 42 85 5 0 23 -15 39
-32z m186 11 c3 -6 0 -15 -7 -20 -11 -8 -6 -16 21 -40 29 -24 32 -31 20 -39
-8 -5 -37 -10 -63 -10 l-49 0 5 37 c3 20 12 42 21 49 9 6 16 16 16 23 0 14 27
14 36 0z m82 -34 c2 -2 2 -11 -1 -20 -12 -30 -67 -11 -67 23 0 11 8 13 32 8
17 -3 34 -8 36 -11z m82 -37 c48 -20 51 -22 29 -30 -21 -8 -93 -2 -112 9 -9 5
10 43 22 43 5 0 32 -10 61 -22z m-260 4 c0 -5 -6 -17 -14 -28 -11 -15 -17 -16
-27 -7 -16 16 -4 43 21 43 11 0 20 -4 20 -8z"/>
<path d="M1004 2770 c0 -15 4 -16 26 -7 41 18 44 25 8 25 -26 0 -34 -4 -34
-18z"/>
<path d="M3381 2782 c-20 -14 22 -18 249 -19 128 -1 188 2 160 7 -72 12 -393
22 -409 12z"/>
<path d="M4065 2780 c3 -5 1 -10 -6 -10 -7 0 -10 -2 -8 -5 3 -2 15 -2 27 2 23
6 21 23 -4 23 -8 0 -12 -4 -9 -10z"/>
<path d="M2118 2676 c0 -56 0 -110 1 -120 1 -11 -6 -35 -14 -53 -9 -18 -14
-37 -12 -41 8 -12 137 -2 137 11 0 8 -18 12 -47 12 l-48 0 -3 95 c-4 129 2
160 33 160 40 0 36 15 -6 27 l-39 10 -2 -101z"/>
<path d="M2442 2709 c3 -65 17 -92 19 -37 1 18 0 38 -1 43 -1 6 -2 20 -2 33 0
12 -5 22 -10 22 -5 0 -8 -27 -6 -61z"/>
<path d="M2733 2763 c28 -4 38 -23 13 -23 -30 0 -69 -45 -69 -80 0 -38 48 -90
84 -90 40 0 79 30 79 60 -1 9 -8 5 -21 -12 -25 -34 -65 -37 -103 -7 -30 24
-33 54 -8 86 26 33 63 38 95 13 15 -12 27 -28 27 -36 0 -8 5 -14 10 -14 19 0
10 29 -20 58 -35 35 -26 42 45 33 28 -4 100 -5 160 -4 61 2 119 4 130 4 15 0
17 2 6 9 -8 4 -114 8 -235 8 -122 0 -209 -3 -193 -5z"/>
<path d="M4445 2723 c17 -3 36 -9 43 -15 8 -7 12 -7 12 0 0 13 -26 22 -58 21
-26 -2 -26 -2 3 -6z"/>
<path d="M2210 2718 c0 -13 49 -99 50 -87 0 19 -27 76 -41 84 -5 4 -9 5 -9 3z"/>
<path d="M3535 2709 c-4 -5 5 -9 18 -9 36 0 77 -36 77 -68 0 -19 3 -23 11 -15
11 11 -10 65 -31 78 -23 14 -70 23 -75 14z"/>
<path d="M4375 2697 c-32 -50 14 -131 75 -129 36 1 50 9 50 28 0 14 -2 13 -16
0 -22 -23 -51 -20 -79 9 -29 28 -32 61 -9 93 8 12 10 22 5 22 -6 0 -17 -11
-26 -23z"/>
<path d="M267 2696 c-12 -9 -14 -16 -8 -21 6 -3 8 -17 5 -30 -3 -12 -1 -26 4
-29 6 -3 11 15 14 44 1 28 3 50 3 50 0 0 -8 -7 -18 -14z"/>
<path d="M3480 2666 c0 -14 -4 -27 -10 -31 -22 -14 23 -70 71 -87 22 -7 36 -6
60 6 17 9 37 13 43 9 6 -3 3 2 -6 12 -15 17 -18 17 -33 1 -24 -23 -68 -20 -93
7 -23 24 -29 71 -12 82 12 7 4 25 -11 25 -5 0 -9 -11 -9 -24z"/>
<path d="M1410 2670 c0 -5 7 -10 15 -10 8 0 15 5 15 10 0 6 -7 10 -15 10 -8 0
-15 -4 -15 -10z"/>
<path d="M2170 2663 c0 -10 7 -27 15 -37 8 -11 15 -28 15 -37 0 -19 17 -35 27
-25 10 10 -30 116 -44 116 -7 0 -13 -8 -13 -17z"/>
<path d="M125 2659 c-10 -15 3 -25 16 -12 7 7 7 13 1 17 -6 3 -14 1 -17 -5z"/>
<path d="M1137 2640 c-3 -13 0 -20 9 -20 15 0 19 26 5 34 -5 3 -11 -3 -14 -14z"/>
<path d="M303 2637 c4 -10 7 -37 7 -59 0 -51 10 -45 14 8 2 25 -3 44 -13 54
-13 13 -14 13 -8 -3z"/>
<path d="M1347 2644 c-4 -4 -7 -18 -7 -32 0 -21 2 -23 16 -11 15 12 16 10 10
-19 -8 -36 -5 -39 18 -16 17 16 22 49 7 39 -5 -3 -11 5 -13 17 -3 22 -19 33
-31 22z"/>
<path d="M870 2630 c0 -5 -7 -10 -15 -10 -8 0 -15 -7 -15 -16 0 -14 1 -14 16
0 8 9 20 16 25 16 5 0 9 5 9 10 0 6 -4 10 -10 10 -5 0 -10 -4 -10 -10z"/>
<path d="M933 2623 c-7 -2 -13 -13 -13 -23 0 -10 -4 -22 -10 -25 -5 -3 -10
-21 -9 -38 l1 -32 8 34 c4 18 12 36 17 40 4 3 8 13 8 21 0 8 11 17 25 21 19 5
20 7 5 7 -11 0 -26 -2 -32 -5z"/>
<path d="M1302 2623 c-6 -2 -10 -9 -6 -14 8 -14 21 -11 28 6 6 15 1 17 -22 8z"/>
<path d="M2300 2626 c0 -2 16 -23 35 -46 48 -57 47 -88 -2 -69 -23 8 -25 7
-20 -11 3 -11 1 -20 -4 -20 -5 0 -9 -4 -9 -10 0 -5 9 -10 20 -10 11 0 20 6 20
14 0 17 52 28 81 18 22 -9 33 -59 23 -112 l-4 -25 -131 4 c-107 2 -131 1 -127
-10 3 -9 27 -16 60 -20 30 -3 60 -9 67 -13 6 -4 11 -2 11 3 0 6 20 11 46 11
57 0 78 11 94 50 9 22 10 41 3 72 -6 24 -9 71 -7 106 2 42 0 61 -7 56 -7 -4
-9 -24 -5 -51 l5 -44 -32 3 c-26 3 -34 9 -46 43 -8 22 -20 45 -26 50 -10 10
-45 19 -45 11z"/>
<path d="M1245 2610 c-3 -5 1 -10 9 -10 8 0 18 5 21 10 3 6 -1 10 -9 10 -8 0
-18 -4 -21 -10z"/>
<path d="M1407 2584 c-6 -10 9 -42 16 -34 3 3 1 14 -3 24 -3 11 -9 15 -13 10z"/>
<path d="M1300 2566 c0 -7 8 -24 18 -37 38 -49 48 -109 20 -109 -17 -1 -72
-49 -64 -57 3 -3 14 1 23 9 37 32 73 31 86 -2 3 -9 6 -4 6 13 1 15 -3 27 -9
27 -5 0 -10 7 -10 15 0 18 9 19 44 5 23 -8 26 -7 26 11 0 15 -5 19 -15 15 -22
-8 -18 12 5 24 11 6 19 14 19 18 -3 19 2 25 11 12 8 -13 10 -12 10 3 0 9 -5
17 -10 17 -12 0 -48 -19 -72 -38 -14 -12 -18 -11 -26 5 -6 10 -10 25 -10 33 3
40 -3 50 -27 50 -14 0 -25 -6 -25 -14z"/>
<path d="M2579 2563 c-24 -6 -51 -60 -43 -86 20 -68 101 -91 149 -42 51 50 14
136 -57 134 -18 -1 -40 -3 -49 -6z m100 -29 c27 -35 26 -59 -4 -89 -32 -33
-60 -31 -96 4 -35 35 -36 57 -7 88 30 33 80 31 107 -3z"/>
<path d="M1220 2545 c0 -9 6 -12 15 -9 8 4 12 10 9 15 -8 14 -24 10 -24 -6z"/>
<path d="M1095 2540 c-6 -10 15 -50 26 -50 4 0 9 6 11 13 6 15 -29 50 -37 37z"/>
<path d="M2218 2525 c2 -14 6 -25 8 -25 2 0 4 11 4 25 0 14 -4 25 -9 25 -4 0
-6 -11 -3 -25z"/>
<path d="M930 2510 c-14 -10 -21 -22 -17 -26 4 -4 17 2 29 14 28 28 20 36 -12
12z"/>
<path d="M260 2500 c0 -10 41 -21 52 -14 18 11 6 23 -22 22 -16 -1 -30 -4 -30
-8z"/>
<path d="M984 2498 c3 -7 9 -21 12 -30 8 -22 20 -23 28 -2 8 22 8 26 -4 19 -6
-3 -13 1 -16 9 -3 9 -11 16 -16 16 -5 0 -7 -6 -4 -12z"/>
<path d="M822 2484 c2 -11 13 -20 27 -22 16 -3 22 1 19 10 -3 7 -9 13 -14 13
-5 0 -15 4 -22 9 -10 6 -13 3 -10 -10z"/>
<path d="M897 2446 c14 -19 19 -21 21 -9 2 9 -2 19 -10 24 -24 16 -29 9 -11
-15z"/>
<path d="M1210 2441 c0 -31 13 -47 30 -36 6 4 4 17 -5 36 -19 37 -25 37 -25 0z"/>
<path d="M1112 2440 c-10 -17 -10 -20 3 -20 8 0 15 2 15 4 0 2 3 11 6 20 9 23
-9 20 -24 -4z"/>
<path d="M865 2410 c-17 -18 -17 -20 -1 -20 9 0 19 7 23 15 9 25 -2 27 -22 5z"/>
<path d="M916 2373 c-4 -9 -2 -21 4 -27 7 -7 10 -2 10 17 0 31 -5 34 -14 10z"/>
<path d="M1231 2353 c4 -26 -4 -42 -23 -46 -13 -2 13 -4 57 -4 44 -1 72 1 63
4 -9 2 -18 12 -20 20 -3 15 -4 15 -19 0 -17 -17 -39 -6 -39 20 0 7 -4 13 -10
13 -5 0 -9 -3 -9 -7z"/>
<path d="M1004 2329 c-3 -6 -17 -9 -30 -6 -14 2 -27 0 -30 -5 -3 -5 -12 -7
-20 -4 -7 3 -16 1 -19 -4 -4 -6 21 -10 61 -10 61 0 65 1 53 17 -8 9 -9 14 -4
11 6 -4 17 -3 25 3 12 7 10 9 -7 9 -12 0 -25 -5 -29 -11z"/>
<path d="M176 2323 c-3 -3 -3 -10 0 -14 7 -12 34 -11 34 0 0 11 -26 22 -34 14z"/>
<path d="M242 2310 c-11 -17 -10 -20 8 -20 21 0 25 7 12 27 -6 9 -11 7 -20 -7z"/>
<path d="M1380 2310 c0 -6 11 -8 28 -4 39 10 40 14 4 14 -18 0 -32 -5 -32 -10z"/>
<path d="M2146 2307 c10 -5 24 -5 36 0 17 7 14 9 -16 9 -27 0 -32 -2 -20 -9z"/>
<path d="M2363 2313 c15 -2 39 -2 55 0 15 2 2 4 -28 4 -30 0 -43 -2 -27 -4z"/>
<path d="M355 2300 c-4 -6 7 -10 25 -10 18 0 29 4 25 10 -3 6 -15 10 -25 10
-10 0 -22 -4 -25 -10z"/>
<path d="M763 2303 c9 -2 25 -2 35 0 9 3 1 5 -18 5 -19 0 -27 -2 -17 -5z"/>
<path d="M1093 2303 c15 -2 39 -2 55 0 15 2 2 4 -28 4 -30 0 -43 -2 -27 -4z"/>
<path d="M2118 2295 c-2 -1 -347 -5 -768 -9 -421 -3 -848 -9 -949 -13 l-184
-6 7 -151 c11 -210 14 -301 21 -616 6 -273 6 -275 30 -299 23 -23 30 -25 127
-22 57 1 279 4 493 6 215 1 390 4 390 5 0 6 74 10 334 15 232 5 299 9 315 21
11 8 30 14 41 14 14 0 10 -5 -15 -18 -42 -21 -49 -51 -19 -78 12 -10 19 -14
16 -8 -4 7 0 18 9 25 14 11 18 11 28 -3 10 -14 13 -13 23 8 9 20 8 26 -5 34
-15 8 -15 9 -1 10 8 0 19 -4 25 -10 6 -6 15 -6 24 1 13 8 12 11 -4 24 -17 13
-17 15 -3 15 9 0 21 -9 27 -20 6 -11 15 -18 20 -15 4 3 20 1 34 -5 23 -8 26
-7 32 15 3 14 3 32 0 41 -4 9 -7 245 -7 524 0 490 -1 508 -19 513 -10 3 -20 4
-22 2z m2 -544 l0 -498 -382 -8 c-211 -4 -621 -13 -913 -19 -291 -7 -531 -12
-532 -12 0 1 -6 217 -12 481 -6 264 -14 492 -16 508 l-4 27 112 1 c61 1 328 5
592 8 264 4 632 8 818 9 l337 2 0 -499z m25 -531 c-5 -8 -11 -8 -17 -2 -6 6
-7 16 -3 22 5 8 11 8 17 2 6 -6 7 -16 3 -22z m-895 -22 c0 -4 -11 -8 -25 -8
-14 0 -25 4 -25 8 0 4 11 8 25 8 14 0 25 -4 25 -8z"/>
<path d="M1563 2192 c-194 -1 -353 -5 -353 -9 0 -3 8 -15 17 -25 15 -17 15
-20 3 -28 -11 -7 -4 -10 25 -11 39 -1 39 -2 10 -10 -22 -6 -14 -7 33 -5 34 2
62 -1 62 -5 0 -5 -11 -9 -25 -9 -16 0 -25 -6 -25 -15 0 -10 -10 -15 -30 -15
-20 0 -30 5 -30 15 0 8 -7 15 -15 15 -17 0 -19 -9 -6 -29 7 -11 43 -14 160
-15 83 0 151 -4 151 -8 0 -5 -12 -8 -26 -8 -14 0 -23 -4 -19 -10 3 -5 42 -10
86 -10 51 0 78 -4 74 -10 -4 -6 7 -10 24 -10 66 0 18 28 -59 35 -14 1 -44 12
-66 23 -22 11 -68 24 -102 28 -34 3 -62 9 -62 13 1 19 20 28 65 30 27 1 57 8
65 16 18 17 324 28 353 13 16 -8 17 -36 17 -377 0 -327 -2 -370 -16 -375 -32
-12 -248 -6 -289 9 -26 9 -32 14 -19 15 12 0 32 9 45 20 l24 20 -24 20 c-13
12 -31 18 -39 15 -20 -8 -112 6 -112 16 0 5 12 9 28 9 61 0 89 21 76 55 -4 11
-21 15 -55 15 -35 0 -49 4 -49 14 0 24 24 35 88 37 44 2 69 8 84 21 12 10 16
18 10 18 -6 0 -14 -4 -17 -10 -8 -13 -327 -8 -338 5 -5 6 -7 4 -5 -5 4 -11 22
-15 81 -15 99 -1 113 -15 16 -16 -54 0 -69 -3 -54 -10 16 -7 14 -9 -12 -6 -18
2 -35 -1 -37 -7 -2 -6 -5 24 -5 67 -1 44 -5 77 -11 77 -5 0 -10 7 -10 16 0 8
4 13 9 10 4 -3 72 -7 150 -9 139 -4 193 6 109 20 -42 7 -42 7 -13 14 17 4 54
7 83 8 37 1 62 7 78 20 l25 20 -23 15 c-13 9 -48 19 -78 23 -39 6 -56 13 -58
25 -4 20 12 25 103 33 122 11 85 18 -59 11 -95 -4 -142 -10 -148 -19 -7 -11
-12 -3 -9 16 2 11 -17 9 -24 -3 -4 -6 -1 -17 5 -25 11 -13 5 -15 -40 -15 -47
0 -52 2 -47 20 3 11 1 23 -4 26 -5 3 -9 2 -8 -3 5 -30 -3 -43 -26 -43 -24 0
-25 3 -25 55 0 37 -4 55 -12 55 -10 0 -12 -74 -10 -345 l3 -345 29 0 c20 0 30
5 30 15 0 8 -4 15 -10 15 -5 0 -10 8 -10 18 0 11 3 13 8 5 8 -13 162 -23 162
-10 0 5 6 5 13 0 6 -4 43 -6 81 -4 48 2 66 0 62 -8 -4 -6 -36 -11 -73 -11 -37
0 -63 -3 -60 -7 7 -7 88 -6 312 3 l150 6 -2 415 c-1 228 -3 416 -5 417 -2 0
-162 0 -355 -2z m-103 -41 c83 -11 38 -23 -66 -17 -49 2 -102 5 -119 6 l-30 2
30 8 c38 10 115 10 185 1z m60 -252 c0 -4 -30 -10 -67 -14 -105 -10 -98 -13
37 -16 164 -3 164 -3 170 -13 3 -5 -79 -9 -193 -10 l-197 -1 0 27 c0 14 -6 28
-12 31 -7 2 49 4 125 4 75 0 137 -4 137 -8z m-172 -71 c101 -4 105 -23 4 -23
-40 0 -72 -4 -72 -8 0 -5 -7 -2 -15 7 -8 8 -15 23 -15 33 0 12 3 14 8 6 5 -8
39 -13 90 -15z m75 -205 c-13 -2 -35 -2 -50 0 -16 2 -5 4 22 4 28 0 40 -2 28
-4z m-86 -25 c47 1 63 -1 53 -8 -11 -7 -6 -10 23 -10 20 0 37 -3 37 -7 0 -5
25 -6 55 -5 37 3 55 0 55 -8 0 -8 -40 -10 -140 -8 -87 2 -142 -1 -144 -7 -3
-5 -5 0 -5 13 -1 12 -5 22 -11 22 -5 0 -10 10 -10 23 0 17 2 19 10 7 7 -11 26
-14 77 -12z m-27 -77 c66 -3 85 -7 82 -17 -2 -10 -71 -10 -96 -1 -9 4 -16 2
-16 -2 0 -14 23 -19 53 -14 15 3 27 1 27 -3 0 -8 36 -11 198 -13 96 -2 73 -17
-35 -25 -54 -4 -118 -9 -143 -12 -36 -5 -50 -2 -69 15 -13 11 -28 18 -32 15
-5 -3 -9 6 -9 20 0 14 -4 26 -10 26 -5 0 -10 8 -10 18 0 10 3 13 8 6 4 -6 27
-11 52 -13z m43 -101 c9 0 17 -5 17 -11 0 -7 -14 -10 -35 -7 -19 2 -37 -1 -39
-7 -2 -5 -5 1 -5 14 -1 19 3 22 22 17 12 -3 30 -6 40 -6z"/>
<path d="M950 2180 c-113 -4 -137 -6 -76 -8 49 -1 87 -5 83 -8 -10 -11 -340
-4 -354 8 -10 8 -13 6 -13 -6 0 -11 -9 -16 -30 -16 -35 0 -40 17 -7 23 19 4
19 4 -5 6 -14 0 -29 -5 -31 -11 -4 -10 -6 -10 -6 0 -1 6 -12 12 -26 12 -24 0
-25 -2 -25 -63 0 -35 3 -66 6 -69 3 -3 5 -112 4 -242 0 -130 3 -236 7 -236 4
0 7 -56 5 -125 l-4 -125 31 0 c17 0 31 5 31 10 0 6 -4 10 -9 10 -5 0 -11 14
-13 30 l-5 30 196 0 c123 0 191 -4 186 -9 -6 -6 -60 -11 -122 -12 -108 -1
-193 -15 -193 -31 0 -4 -4 -8 -10 -8 -5 0 -10 7 -10 15 0 8 -4 15 -9 15 -4 0
-6 -11 -3 -25 4 -21 8 -24 26 -19 11 4 24 12 29 18 5 8 9 8 15 0 9 -15 125
-17 387 -8 l211 7 -8 66 c-4 36 -7 227 -7 424 l-1 357 -42 -2 c-24 -1 -117 -5
-208 -8z m-468 -92 c2 -20 0 -34 -4 -32 -4 3 -7 26 -7 52 1 49 5 42 11 -20z
m676 54 c9 -6 13 -94 15 -383 l2 -374 -120 1 c-91 1 -128 5 -152 18 -18 9 -43
16 -57 16 -33 0 -41 16 -22 45 13 19 24 23 62 23 55 0 85 22 65 46 -9 11 -35
15 -97 15 -47 0 -90 3 -95 7 -23 14 13 27 83 30 133 5 76 19 -92 22 -112 2
-160 6 -150 12 11 8 5 10 -22 8 -23 -1 -40 -8 -44 -18 -5 -12 -8 -12 -14 5
-17 41 -14 42 103 40 157 -3 167 -4 167 -16 0 -8 -16 -10 -47 -7 -27 3 -59 2
-73 -3 -15 -4 34 -7 117 -6 103 1 139 5 132 13 -5 7 -29 11 -54 11 -42 0 -75
15 -75 34 0 5 14 9 31 9 41 0 69 16 69 41 0 37 -19 57 -61 64 -38 7 -39 8 -24
25 11 12 14 26 10 39 -5 17 -2 21 15 21 11 0 34 7 49 15 16 8 48 17 71 21 39
6 70 26 70 44 0 16 -82 40 -138 40 -53 0 -60 3 -80 29 -27 37 -18 41 86 41 42
0 84 5 92 10 10 6 -43 10 -158 10 -144 0 -174 -2 -178 -15 -4 -9 -18 -15 -33
-14 l-26 1 25 8 c19 6 11 8 -32 9 -39 1 -58 5 -58 14 0 9 34 12 138 12 297 1
342 4 336 19 -6 15 3 17 111 23 22 2 46 -1 53 -5z m-349 -11 c8 -5 -38 -10
-125 -13 -138 -4 -174 -2 -174 11 0 10 283 13 299 2z m-230 -67 c2 -2 -12 -4
-32 -4 -20 0 -38 4 -42 9 -5 9 64 4 74 -5z m130 -25 c-14 -8 29 -14 74 -10 9
1 17 -2 17 -7 0 -9 -117 -22 -216 -24 -40 -1 -89 26 -78 43 2 4 52 8 111 7 65
0 100 -4 92 -9z m76 -72 c134 -1 216 -6 218 -12 1 -5 -16 -11 -38 -11 -22 -1
-92 -6 -155 -10 l-115 -9 95 -6 95 -5 -105 -2 c-58 -1 -121 -6 -140 -12 -39
-11 -89 5 -91 30 -1 8 -3 25 -4 38 -2 17 1 20 11 11 9 -7 89 -11 229 -12z
m-298 -114 c-2 -21 -4 -4 -4 37 0 41 2 58 4 38 2 -21 2 -55 0 -75z m105 9
c-23 -2 -40 -7 -38 -11 3 -4 62 -6 131 -3 82 3 125 1 125 -6 0 -6 -50 -13
-122 -17 -68 -3 -131 -9 -140 -11 -12 -4 -18 0 -18 9 0 9 -6 18 -12 20 -8 4
-4 8 10 12 12 4 22 10 22 14 0 4 19 4 43 1 l42 -5 -43 -3z m278 -103 c0 -6
-41 -10 -102 -9 -157 2 -169 -3 -23 -10 72 -3 128 -9 125 -13 -3 -4 -63 -8
-135 -8 -71 1 -143 1 -159 1 -43 -1 -63 8 -69 30 -4 18 2 19 72 22 128 5 291
-2 291 -13z m-379 -90 c-2 -102 -11 -100 -11 1 0 46 3 81 6 77 4 -3 6 -39 5
-78z m224 9 c-59 -10 -203 -9 -210 2 -3 6 38 10 107 12 124 3 165 -2 103 -14z
m15 -98 c0 -9 -173 -19 -202 -12 -10 2 -18 8 -18 13 0 6 49 9 110 8 61 0 110
-5 110 -9z m-2 -49 c1 -4 52 -5 112 -3 78 3 110 1 110 -7 0 -8 -44 -11 -142
-12 -79 -1 -146 -1 -150 0 -23 3 -96 2 -115 -3 -18 -4 -23 0 -23 14 0 12 8 20
23 22 38 6 182 -2 185 -11z m82 -60 c0 -14 -58 -21 -175 -21 -90 0 -114 3
-118 15 -5 12 17 14 143 14 83 0 150 -4 150 -8z m-80 -40 c68 -7 61 -8 -76
-12 -119 -3 -150 -1 -147 9 6 13 93 14 223 3z m260 -71 c0 -6 -59 -9 -162 -8
l-163 2 135 6 c74 3 147 7 163 8 15 1 27 -2 27 -8z"/>
<path d="M564 1941 c5 -8 56 -3 56 5 0 2 -14 4 -31 4 -16 0 -28 -4 -25 -9z"/>
<path d="M630 1941 c0 -17 21 -24 33 -11 9 10 9 11 0 6 -7 -4 -13 -2 -13 3 0
6 -4 11 -10 11 -5 0 -10 -4 -10 -9z"/>
<path d="M658 2173 c12 -2 30 -2 40 0 9 3 -1 5 -23 4 -22 0 -30 -2 -17 -4z"/>
<path d="M1456 1995 c4 -8 13 -15 21 -15 12 0 12 2 -1 15 -8 8 -17 15 -20 15
-3 0 -3 -7 0 -15z"/>
<path d="M363 1873 c15 -2 39 -2 55 0 15 2 2 4 -28 4 -30 0 -43 -2 -27 -4z"/>
<path d="M1336 1745 c-4 -12 3 -15 37 -13 41 1 41 1 7 6 -29 4 -32 6 -15 12
19 8 19 9 -1 9 -12 1 -24 -6 -28 -14z"/>
<path d="M1438 1743 c-12 -3 -18 -14 -18 -34 0 -28 1 -29 53 -29 80 0 157 12
151 22 -4 6 -33 7 -72 3 -60 -6 -64 -6 -49 9 8 9 20 16 26 16 5 0 12 4 16 9 5
10 -72 12 -107 4z"/>
<path d="M1330 1703 c0 -12 3 -14 8 -7 4 7 18 14 32 17 21 4 20 4 -7 6 -25 1
-33 -3 -33 -16z"/>
<path d="M1310 1346 c5 -5 29 -4 57 2 l48 10 -57 -2 c-32 0 -53 -5 -48 -10z"/>
<path d="M2186 2292 c-6 -10 2 -677 9 -792 14 -221 17 -241 39 -254 12 -8 42
-14 68 -15 26 -1 73 -8 105 -15 32 -8 90 -17 128 -20 39 -3 81 -8 95 -10 14
-2 34 -5 44 -5 37 -2 2 -20 -41 -22 -24 -2 -43 -7 -43 -11 0 -9 77 1 101 13 9
4 55 9 102 10 48 1 84 5 81 10 -5 9 4 11 51 11 41 0 45 -1 39 -17 -4 -10 0
-15 13 -15 10 0 79 -5 152 -11 74 -6 137 -7 140 -2 11 16 58 15 64 -1 5 -13
-1 -16 -28 -16 -19 0 -35 -4 -35 -9 0 -6 11 -9 24 -8 14 1 25 -2 25 -8 0 -5
-13 -9 -30 -7 -20 1 -29 -2 -29 -13 0 -11 11 -15 36 -15 33 0 36 -2 31 -22 -4
-13 -11 -46 -18 -74 l-11 -51 -72 4 c-392 19 -491 22 -494 15 -1 -4 -38 -6
-82 -4 -67 4 -85 1 -115 -17 -55 -32 -64 -29 -61 27 2 26 7 56 11 66 6 14 5
17 -3 12 -7 -4 -12 -2 -12 4 0 20 -27 40 -54 40 -29 0 -44 19 -25 31 10 6 4 9
-19 9 -18 0 -31 -4 -27 -9 3 -5 1 -12 -4 -15 -13 -9 -41 4 -41 19 0 13 -54 25
-105 24 l-30 -1 35 -12 c46 -15 76 -33 68 -41 -3 -3 -26 3 -51 14 -56 26 -59
26 -99 1 -51 -31 -183 -23 -183 12 0 8 -6 22 -12 30 -7 8 -17 25 -22 39 l-10
24 0 -29 c-1 -16 7 -35 17 -42 16 -13 16 -15 -2 -29 -11 -8 -22 -13 -25 -10
-2 3 4 12 15 20 18 13 18 14 -4 8 -12 -3 -25 -9 -28 -14 -3 -5 -17 -9 -32 -9
-41 0 -13 -18 38 -24 25 -3 165 -9 313 -12 l267 -7 0 -40 c0 -36 -2 -39 -22
-34 -13 3 -111 8 -218 12 -290 8 -318 12 -323 38 -4 22 -4 22 -6 0 -1 -17 -7
-23 -26 -23 -21 0 -25 5 -25 30 0 34 -4 35 -40 15 -20 -11 -21 -14 -7 -15 10
0 16 -4 13 -9 -3 -5 -53 -10 -111 -10 -91 -1 -105 1 -105 15 0 13 -4 11 -19
-7 -14 -18 -22 -21 -32 -12 -11 9 -57 11 -111 4 -5 -1 -8 -8 -8 -16 0 -13 33
-15 233 -15 129 0 322 -3 430 -7 l197 -6 0 -46 c0 -42 3 -47 30 -59 17 -8 30
-19 30 -26 0 -9 9 -12 26 -8 23 4 25 2 19 -17 -4 -14 -2 -21 7 -21 8 0 19 18
25 40 9 36 8 42 -8 50 -23 13 -60 14 -40 1 9 -6 10 -11 2 -15 -6 -4 -8 -12 -5
-18 4 -7 2 -8 -5 -4 -6 4 -8 12 -5 18 4 6 2 8 -4 4 -12 -7 -48 39 -54 69 -3
18 4 20 81 23 l84 3 -6 -46 c-7 -46 -6 -46 20 -43 32 4 73 -29 73 -58 0 -40
13 -46 101 -42 70 2 84 6 81 19 -1 9 9 27 23 41 l25 25 -22 28 -22 28 245 -7
c134 -4 270 -9 303 -12 42 -5 57 -3 52 5 -9 14 -4 14 28 1 14 -5 26 -6 26 -2
0 5 -12 13 -27 19 l-28 11 25 1 c32 1 46 -8 54 -36 6 -20 4 -23 -18 -23 -17 0
-26 -6 -26 -16 0 -8 5 -12 10 -9 5 3 10 -1 10 -9 0 -8 -4 -18 -10 -21 -13 -8
-13 -82 0 -90 8 -5 7 -11 -1 -21 -6 -8 -8 -14 -4 -14 4 0 2 -7 -5 -15 -10 -13
-9 -15 10 -15 13 0 24 8 27 19 4 15 20 21 79 30 41 6 86 11 99 11 24 0 42 -15
28 -23 -5 -2 -2 -2 5 0 8 1 20 3 28 3 9 0 13 3 10 8 -2 4 14 8 37 8 76 1 216
17 212 24 -3 4 7 16 22 25 48 32 111 96 142 144 43 66 39 78 -4 14 -81 -121
-151 -168 -265 -182 -188 -22 -190 -22 -190 -1 0 24 -1 24 -111 3 -49 -9 -91
-14 -95 -10 -3 3 -2 23 3 44 8 35 12 38 46 41 21 2 61 -4 88 -13 54 -18 109
-15 164 9 l30 14 -37 16 c-20 8 -39 25 -43 36 -20 63 101 125 309 159 l40 6
-43 11 c-35 10 -41 9 -37 -2 4 -10 -4 -14 -27 -16 -55 -2 -70 1 -135 33 -34
17 -70 28 -80 26 -14 -4 -14 -5 3 -6 11 -1 34 -10 50 -21 l30 -21 -65 6 c-36
3 -81 10 -100 16 -38 12 -62 29 -41 29 7 0 10 4 7 9 -3 5 16 12 42 16 71 12
102 13 102 4 0 -5 6 -6 14 -3 8 3 17 1 21 -5 3 -6 21 -11 38 -11 22 0 28 -3
18 -9 -8 -5 10 -10 50 -13 44 -3 67 -1 74 8 8 9 24 10 73 2 51 -9 66 -8 72 2
4 7 8 58 9 114 1 110 10 472 20 797 3 113 5 213 3 222 -4 21 -48 24 -862 42
-382 8 -772 18 -866 21 -116 4 -173 3 -178 -4z m599 -53 c413 -12 590 -17 978
-25 l288 -6 -5 -102 c-3 -55 -11 -294 -17 -531 -6 -236 -12 -430 -13 -431 0
-1 -89 5 -196 13 -107 7 -215 12 -239 11 -44 -3 -44 -4 -62 -54 l-17 -52 56
-7 c32 -3 71 -10 87 -15 64 -18 87 -21 80 -10 -7 12 28 12 65 0 25 -8 25 -8
-4 -9 -16 -1 -26 -4 -23 -7 4 -4 -17 -18 -46 -31 -92 -43 -118 -83 -80 -125
15 -16 15 -21 3 -28 -8 -5 -19 -5 -25 -1 -8 7 -62 12 -150 14 -11 0 -27 -3
-37 -7 -14 -6 -15 -3 -8 26 4 18 13 45 19 60 9 25 8 28 -15 34 -17 5 -23 11
-19 22 3 8 0 19 -7 24 -19 12 -28 10 -28 -7 0 -17 -35 -21 -45 -5 -9 15 8 35
29 35 13 0 24 12 34 35 l14 35 -28 -28 c-15 -15 -29 -25 -32 -23 -2 3 6 33 18
67 25 72 21 78 -50 79 -69 2 -123 14 -128 29 -3 9 0 12 10 9 13 -5 16 30 21
255 4 144 7 315 7 380 0 86 3 117 13 118 10 0 10 2 0 6 -16 6 -17 33 -1 33 9
0 9 3 0 12 -8 8 -10 38 -6 97 4 64 3 82 -6 69 -6 -9 -16 -15 -24 -12 -10 4
-14 -72 -20 -398 -8 -456 -7 -427 -15 -426 -3 0 -16 0 -29 -1 -31 -1 -18 -21
14 -21 23 0 24 -2 24 -71 l0 -72 -137 7 c-76 4 -163 9 -193 11 -122 10 -364
25 -396 25 l-34 0 0 71 c0 41 -4 68 -9 64 -5 -3 -12 -1 -16 5 -3 5 1 10 9 10
13 0 16 14 16 74 0 81 -4 86 -58 78 -29 -4 -31 -6 -15 -17 10 -7 21 -11 25 -9
5 3 8 -13 8 -35 0 -51 17 -54 23 -3 3 26 4 23 3 -13 l-1 -50 -35 1 c-19 0 -52
4 -72 8 -23 5 -38 4 -38 -1 0 -15 49 -37 76 -35 15 1 24 -3 24 -13 0 -8 5 -15
11 -15 6 0 10 -10 9 -22 -6 -72 7 -90 15 -23 8 59 15 55 15 -9 l0 -58 -77 3
c-43 1 -82 4 -88 6 -6 2 -10 169 -9 475 l1 472 42 -3 c23 -1 41 2 41 8 0 5 26
12 58 14 31 2 11 3 -45 1 -79 -2 -103 0 -103 10 0 23 11 25 114 20 55 -3 259
-9 451 -15z m430 -99 c-5 -8 -11 -8 -17 -2 -6 6 -7 16 -3 22 5 8 11 8 17 2 6
-6 7 -16 3 -22z m-115 -967 c0 -5 -11 -8 -25 -8 -14 0 -25 3 -25 8 0 4 11 7
25 7 14 0 25 -3 25 -7z m942 -65 c-15 -15 -26 -4 -18 18 5 13 9 15 18 6 9 -9
9 -15 0 -24z m-142 -3 c0 -8 -4 -15 -9 -15 -5 0 -11 7 -15 15 -3 9 0 15 9 15
8 0 15 -7 15 -15z m-515 -145 c3 -5 -1 -10 -9 -10 -8 0 -18 5 -21 10 -3 6 1
10 9 10 8 0 18 -4 21 -10z m-662 -67 c4 -2 7 -17 7 -33 0 -39 -32 -60 -91 -60
-56 0 -86 21 -95 67 -6 31 -6 32 37 36 44 4 128 -2 142 -10z"/>
<path d="M3365 2190 c-3 -11 -3 -24 0 -30 3 -5 1 -10 -4 -10 -6 0 -11 -6 -11
-14 0 -9 -8 -12 -25 -8 -15 2 -25 0 -25 -7 0 -10 21 -16 43 -12 9 1 10 -23 1
-32 -4 -3 -17 1 -30 10 -14 9 -28 12 -32 8 -4 -4 -1 -10 6 -12 6 -3 10 -9 6
-14 -3 -5 9 -9 25 -9 17 0 31 -5 31 -11 0 -6 -12 -10 -27 -9 -16 1 -39 -2 -52
-6 -23 -7 -24 -8 -5 -15 10 -4 38 -8 62 -8 63 -1 51 -19 -20 -28 -35 -4 -52
-9 -39 -11 19 -3 21 -6 10 -14 -11 -7 -11 -11 -1 -15 10 -4 10 -8 1 -19 -9
-11 -8 -14 5 -14 9 0 16 8 16 19 0 24 22 42 39 32 9 -6 11 -27 8 -75 -3 -36
-1 -69 4 -72 5 -3 6 -10 3 -16 -4 -6 -8 -56 -10 -112 -1 -56 -3 -103 -4 -106
-2 -3 -1 -9 0 -15 1 -5 1 -88 0 -182 0 -101 3 -173 9 -173 5 0 11 89 15 203
11 390 18 797 13 797 -3 0 -8 -9 -12 -20z"/>
<path d="M3130 2192 c0 -4 9 -8 20 -9 11 -1 20 2 20 8 0 5 -9 9 -20 9 -11 0
-20 -4 -20 -8z"/>
<path d="M3263 2173 c15 -2 27 -9 27 -14 0 -5 10 -9 23 -9 20 0 20 1 -7 15
-15 8 -38 14 -50 14 -15 -2 -14 -3 7 -6z"/>
<path d="M2370 1999 c0 -20 -4 -21 -45 -15 -29 5 -45 4 -45 -3 0 -7 23 -11 55
-11 52 0 55 1 55 25 0 14 -4 25 -10 25 -5 0 -10 -10 -10 -21z"/>
<path d="M2377 1903 c8 -65 13 -67 13 -5 0 29 -4 52 -10 52 -6 0 -7 -19 -3
-47z"/>
<path d="M2843 1938 c-2 -5 25 -8 60 -8 36 0 79 -3 96 -6 19 -4 31 -2 31 4 0
12 -179 21 -187 10z"/>
<path d="M2968 1873 c12 -2 30 -2 40 0 9 3 -1 5 -23 4 -22 0 -30 -2 -17 -4z"/>
<path d="M3277 1864 c-3 -3 -3 -12 0 -20 3 -10 0 -12 -10 -8 -8 3 -18 1 -22
-5 -4 -7 5 -11 25 -11 27 0 29 2 21 19 -6 10 -7 21 -4 25 3 3 4 6 1 6 -2 0 -7
-3 -11 -6z"/>
<path d="M3750 1854 c0 -14 3 -14 15 -4 8 7 15 14 15 16 0 2 -7 4 -15 4 -8 0
-15 -7 -15 -16z"/>
<path d="M3290 1790 c0 -5 -7 -10 -15 -10 -8 0 -15 -4 -15 -10 0 -17 25 -11
38 10 7 12 8 20 2 20 -5 0 -10 -4 -10 -10z"/>
<path d="M3240 1620 c0 -5 14 -10 31 -10 17 0 28 4 24 10 -3 6 -17 10 -31 10
-13 0 -24 -4 -24 -10z"/>
<path d="M3253 1563 c9 -2 25 -2 35 0 9 3 1 5 -18 5 -19 0 -27 -2 -17 -5z"/>
<path d="M2800 1406 c0 -13 7 -15 43 -10 52 8 60 14 19 14 -16 0 -37 3 -46 6
-11 4 -16 1 -16 -10z"/>
<path d="M3445 1378 c-11 -28 -55 -162 -55 -165 0 -1 10 -1 21 0 39 6 65 79
32 91 -12 5 -13 10 -5 18 11 11 86 4 110 -11 19 -11 4 -40 -18 -34 -10 3 -21
0 -25 -6 -3 -6 -3 -11 2 -10 23 4 23 -3 -1 -26 -31 -29 -33 -41 -6 -48 14 -4
18 -11 15 -24 -3 -10 0 -7 7 7 7 14 16 27 20 30 10 8 48 119 48 141 0 12 -10
21 -27 25 -16 3 -44 10 -63 15 -46 12 -50 11 -55 -3z"/>
<path d="M2970 1360 c14 -4 34 -8 45 -9 16 -1 17 1 5 9 -8 5 -28 9 -45 9 -29
-1 -29 -1 -5 -9z"/>
<path d="M2845 1281 c-11 -4 -26 -6 -32 -4 -8 3 -13 -3 -13 -15 0 -21 -5 -20
188 -38 71 -6 79 4 28 35 -37 23 -138 36 -171 22z"/>
<path d="M3408 1173 c-3 -15 -9 -36 -13 -45 -4 -11 -3 -18 4 -18 6 0 11 9 11
21 0 18 4 20 28 15 20 -5 23 -4 12 4 -8 5 -10 10 -5 10 6 0 3 5 -5 10 -13 8
-13 10 2 10 9 0 19 -6 22 -12 3 -7 5 -4 3 7 -1 13 -11 21 -28 23 -22 3 -27 -2
-31 -25z"/>
<path d="M3496 1117 c-3 -13 -13 -40 -21 -61 -13 -30 -19 -36 -28 -27 -9 9 -9
14 2 20 7 5 11 17 9 27 -3 15 -8 10 -21 -20 -21 -49 -21 -53 2 -61 11 -3 18
-12 15 -20 -3 -7 -1 -16 5 -20 7 -4 8 0 4 11 -4 11 -2 15 4 11 15 -9 24 19 17
51 -5 22 -3 24 6 12 10 -13 11 -12 6 4 -4 10 -1 34 5 53 6 19 9 36 6 39 -2 3
-7 -6 -11 -19z"/>
<path d="M3425 1119 c-10 -15 3 -25 16 -12 7 7 7 13 1 17 -6 3 -14 1 -17 -5z"/>
<path d="M3525 975 c-18 -40 -31 -55 -46 -55 -11 0 -22 -7 -26 -15 -17 -45 46
-27 71 20 12 21 30 38 45 42 24 6 24 6 4 14 -15 6 -20 14 -16 28 10 38 -5 22
-32 -34z"/>
<path d="M4159 1605 c-15 -8 -30 -22 -33 -32 -6 -14 -9 -15 -16 -4 -5 9 -9
-29 -11 -95 -4 -134 -1 -275 6 -282 15 -15 20 27 25 190 5 166 7 182 25 194
48 32 60 43 45 43 -8 0 -27 -6 -41 -14z"/>
<path d="M4236 1591 c-8 -12 44 -21 162 -27 97 -5 102 -5 102 15 0 18 -7 20
-129 20 -72 1 -132 -3 -135 -8z"/>
<path d="M4206 1551 c-16 -3 -31 -12 -34 -19 -2 -7 2 -10 12 -6 12 5 15 2 10
-10 -3 -9 -1 -16 5 -16 7 0 8 -7 1 -22 -14 -35 -40 -176 -40 -219 0 -21 -6
-58 -14 -81 -8 -24 -14 -50 -14 -58 0 -8 -3 -75 -6 -147 -6 -111 -4 -137 9
-157 14 -21 14 -24 0 -29 -17 -7 -22 -97 -5 -97 6 0 10 -9 10 -20 0 -11 4 -20
8 -20 4 0 9 55 9 123 3 268 4 303 10 325 4 18 8 21 14 10 6 -8 9 0 9 25 0 20
-5 37 -10 37 -7 0 -7 6 -2 18 12 21 32 169 32 233 0 29 5 49 13 52 9 3 9 10
-2 30 -16 30 -16 28 19 44 27 13 12 14 -34 4z"/>
<path d="M4338 1543 c18 -2 45 -2 60 0 15 2 0 4 -33 4 -33 0 -45 -2 -27 -4z"/>
<path d="M4430 1530 c0 -5 7 -10 15 -10 8 0 15 5 15 10 0 6 -7 10 -15 10 -8 0
-15 -4 -15 -10z"/>
<path d="M4261 1526 c2 -2 18 -6 34 -10 22 -5 26 -4 15 4 -14 9 -59 15 -49 6z"/>
<path d="M4168 1490 c-12 -38 -10 -66 3 -53 6 6 9 26 7 44 -3 32 -3 33 -10 9z"/>
<path d="M4290 1466 c0 -17 -3 -121 -6 -231 -4 -110 -4 -197 0 -194 7 7 14
105 20 282 2 65 6 121 10 124 3 4 6 1 6 -6 0 -7 5 -9 10 -6 6 3 10 17 10 29 0
17 -7 25 -25 28 -22 5 -25 2 -25 -26z"/>
<path d="M4400 1472 c0 -10 3 -22 7 -26 4 -4 6 -87 5 -184 -1 -102 2 -169 7
-157 4 11 9 40 10 65 4 67 6 84 15 99 5 7 3 18 -3 24 -14 14 -15 91 -1 82 12
-8 13 20 2 43 -6 12 -3 22 9 34 16 16 20 16 34 2 16 -16 19 -7 9 20 -4 11 -19
16 -50 16 -36 0 -44 -3 -44 -18z"/>
<path d="M4241 1423 c1 -32 5 -87 9 -123 6 -58 7 -51 8 58 1 76 -2 122 -8 122
-6 0 -9 -25 -9 -57z"/>
<path d="M4352 1353 l1 -128 7 105 c4 58 10 115 14 128 6 16 3 22 -8 22 -14 0
-16 -18 -14 -127z"/>
<path d="M4223 1263 c-15 -31 -17 -201 -4 -222 15 -23 22 40 19 151 -3 87 -4
94 -15 71z"/>
<path d="M2170 1191 c0 -9 -6 -23 -12 -30 -9 -8 3 -6 32 5 43 16 84 42 50 32
-8 -3 -27 -1 -42 3 -23 6 -28 4 -28 -10z"/>
<path d="M2090 1183 c0 -5 4 -14 9 -22 8 -12 12 -12 25 -2 9 7 13 17 10 22 -6
11 -44 12 -44 2z"/>
<path d="M2270 1181 c0 -4 10 -17 23 -29 23 -22 53 -27 94 -16 34 9 17 24 -28
24 -29 0 -38 3 -33 13 4 6 4 9 0 5 -5 -4 -19 -3 -32 2 -13 5 -24 6 -24 1z"/>
<path d="M2036 1165 c-11 -8 -18 -17 -15 -19 12 -10 46 -14 58 -7 12 8 12 12
2 25 -16 19 -21 19 -45 1z"/>
<path d="M4090 1170 c-12 -8 -11 -10 8 -10 12 0 22 5 22 10 0 13 -11 13 -30 0z"/>
<path d="M1302 1135 c-1 -22 3 -49 7 -60 7 -17 9 -15 13 12 2 18 -1 45 -8 60
l-12 28 0 -40z"/>
<path d="M2230 1150 c14 -4 32 -8 40 -9 13 -1 13 0 0 9 -8 5 -26 9 -40 9 l-25
-1 25 -8z"/>
<path d="M1088 1137 c-11 -27 -10 -75 3 -82 14 -10 15 -7 9 50 -3 35 -7 45
-12 32z"/>
<path d="M2785 1144 c-82 -18 -227 -59 -213 -62 9 -2 66 9 125 23 171 42 263
46 263 9 0 -36 84 -115 122 -114 35 1 88 72 87 115 -1 29 -1 29 -13 -9 -26
-84 -109 -100 -162 -31 -33 43 -28 54 16 42 23 -7 29 -12 18 -14 -27 -7 -21
-23 7 -23 19 0 25 5 25 23 0 20 -8 24 -65 35 -62 11 -167 14 -210 6z"/>
<path d="M772 1110 c0 -19 2 -27 5 -17 2 9 2 25 0 35 -3 9 -5 1 -5 -18z"/>
<path d="M1961 1095 c14 -14 125 -13 139 1 9 9 -8 12 -69 10 -53 -1 -77 -4
-70 -11z"/>
<path d="M2858 1093 c12 -2 30 -2 40 0 9 3 -1 5 -23 4 -22 0 -30 -2 -17 -4z"/>
<path d="M3962 1081 c20 -4 44 -13 52 -20 11 -9 28 -11 58 -5 l43 7 -35 8
c-19 4 -62 10 -95 13 -43 3 -50 3 -23 -3z"/>
<path d="M1230 1061 c0 -6 -24 -12 -52 -14 -43 -3 -38 -4 25 -5 72 -2 98 8 61
22 -22 9 -34 7 -34 -3z"/>
<path d="M4191 1035 c0 -35 1 -37 10 -17 6 15 5 30 -1 40 -7 13 -9 8 -9 -23z"/>
<path d="M2752 1043 c-6 -2 -10 -9 -6 -14 8 -14 21 -11 28 6 6 15 1 17 -22 8z"/>
<path d="M2674 1028 c-3 -4 4 -8 15 -8 12 0 21 4 21 8 0 5 -7 9 -15 9 -9 0
-18 -4 -21 -9z"/>
<path d="M3164 1018 c1 -13 -4 -31 -12 -40 -27 -33 10 -20 52 17 40 36 42 60
3 36 -15 -10 -22 -10 -25 -2 -7 20 -19 12 -18 -11z"/>
<path d="M3905 1009 c-90 -19 -180 -48 -172 -55 2 -2 26 3 53 11 29 10 107 18
192 22 78 3 142 10 142 15 0 25 -112 29 -215 7z"/>
<path d="M1180 1010 c0 -13 11 -13 30 0 12 8 11 10 -7 10 -13 0 -23 -4 -23
-10z"/>
<path d="M4217 1006 c-4 -10 -5 -21 -2 -24 9 -9 17 6 13 25 -3 17 -4 17 -11
-1z"/>
<path d="M174 995 c9 -9 16 -24 17 -33 0 -12 3 -11 9 6 5 12 17 22 26 22 27 0
13 7 -30 14 -36 7 -38 6 -22 -9z"/>
<path d="M4268 975 c-11 -58 -10 -143 2 -166 12 -21 40 -25 58 -7 9 9 12 9 12
0 0 -7 13 -12 30 -12 17 0 30 4 30 9 0 6 -12 9 -27 8 -26 -2 -26 -1 -29 63 -4
74 -28 156 -39 128 -4 -9 -2 -25 3 -35 5 -10 8 -49 6 -88 -2 -53 -6 -71 -18
-73 -13 -3 -16 14 -18 105 -2 82 -5 98 -10 68z"/>
<path d="M80 945 c-59 -60 -65 -87 -7 -30 21 21 42 33 49 29 7 -5 8 -3 4 5 -5
7 0 21 10 32 9 10 13 19 8 19 -5 0 -34 -25 -64 -55z"/>
<path d="M2983 992 c-7 -4 -9 -12 -5 -18 4 -6 13 -3 25 8 17 18 4 25 -20 10z"/>
<path d="M261 917 c2 -72 18 -104 20 -40 2 59 -2 87 -12 98 -7 6 -9 -14 -8
-58z"/>
<path d="M1105 960 c-346 -6 -341 -16 9 -19 225 -2 293 -8 252 -24 -9 -4 -16
-16 -16 -27 0 -12 -7 -20 -17 -20 -11 -1 -2 -9 20 -21 33 -18 54 -20 158 -17
108 3 119 1 119 -14 0 -23 5 -22 38 2 15 11 51 23 80 27 47 5 54 3 78 -21 35
-34 81 -36 80 -3 -1 12 5 22 12 21 6 -1 42 -2 78 -2 54 -2 64 -4 55 -15 -10
-13 -6 -27 10 -27 4 0 21 11 38 26 29 24 33 24 83 14 29 -6 71 -15 93 -19 22
-5 32 -9 23 -10 -21 -1 -22 -8 -3 -41 8 -14 14 -35 15 -46 0 -17 -5 -20 -25
-16 -29 5 -29 5 -11 -39 l14 -34 7 28 c4 15 10 27 14 27 4 0 12 14 18 30 6 17
18 30 27 30 20 0 20 -2 -4 -45 -13 -24 -16 -35 -7 -35 8 0 8 -3 -2 -9 -25 -16
-6 -38 28 -33 28 4 45 22 21 22 -6 0 -8 10 -6 23 3 12 8 39 11 61 6 37 6 38
-19 32 -37 -9 -56 2 -56 35 0 23 -5 29 -21 29 -11 0 -17 5 -14 10 4 6 -10 17
-30 25 -28 12 -84 16 -258 16 -233 1 -291 -4 -319 -28 -13 -12 -24 -13 -50 -5
-18 5 -78 9 -133 8 -55 -1 -103 -1 -107 1 -4 2 0 23 9 48 8 25 13 48 11 52 -1
5 -138 6 -303 3z"/>
<path d="M4212 919 c0 -27 2 -48 5 -45 9 9 13 96 4 96 -5 0 -9 -23 -9 -51z"/>
<path d="M3677 922 c-25 -28 -21 -40 22 -62 22 -11 42 -24 46 -29 7 -13 -28
-31 -90 -48 l-50 -13 50 5 c28 3 56 1 64 -4 10 -6 21 -1 37 16 28 31 21 51
-31 83 -36 22 -43 34 -25 45 12 8 13 25 2 25 -5 0 -16 -8 -25 -18z"/>
<path d="M4396 904 c-4 -10 -1 -14 6 -12 15 5 23 28 10 28 -5 0 -13 -7 -16
-16z"/>
<path d="M4493 860 c0 -25 2 -35 4 -22 2 12 2 32 0 45 -2 12 -4 2 -4 -23z"/>
<path d="M4453 850 c0 -25 2 -35 4 -22 2 12 2 32 0 45 -2 12 -4 2 -4 -23z"/>
<path d="M3070 832 c0 -29 4 -52 8 -52 8 0 6 90 -3 98 -3 3 -5 -18 -5 -46z"/>
<path d="M3332 859 c-5 -13 -13 -35 -17 -49 -11 -38 10 -12 24 29 13 39 6 57
-7 20z"/>
<path d="M3249 853 c0 -10 -2 -28 -5 -40 -2 -12 1 -25 6 -28 6 -4 10 12 10 39
0 43 -9 67 -11 29z"/>
<path d="M1270 850 c0 -5 9 -10 21 -10 11 0 17 5 14 10 -3 6 -13 10 -21 10 -8
0 -14 -4 -14 -10z"/>
<path d="M538 795 c-26 -19 -52 -35 -56 -35 -5 0 -17 -9 -28 -21 -29 -33 -55
-43 -65 -28 -7 11 -9 10 -9 -4 0 -14 -5 -16 -27 -11 -16 4 -36 11 -45 15 -25
13 -38 11 -38 -7 0 -14 3 -14 16 -4 13 11 16 10 20 -7 4 -14 12 -19 25 -16 10
3 26 3 34 -1 13 -5 14 -10 4 -28 -15 -28 -30 -39 -46 -33 -24 8 -13 -3 21 -23
32 -19 59 -21 333 -27 164 -4 323 -8 353 -10 92 -5 216 -6 408 -6 219 1 221 2
220 103 0 124 2 128 66 138 25 4 43 3 40 -2 -3 -4 1 -8 9 -8 8 0 18 -11 21
-25 7 -29 40 -34 50 -9 5 13 1 15 -19 12 -20 -4 -23 -3 -14 8 8 10 6 18 -8 32
-15 16 -28 18 -80 14 -35 -2 -63 -8 -63 -13 0 -5 -6 -9 -14 -9 -20 0 -41 -67
-27 -84 7 -9 7 -16 0 -23 -7 -7 -7 -23 1 -53 6 -23 9 -45 6 -48 -3 -3 -252 0
-553 7 -302 6 -585 11 -630 11 -46 0 -83 3 -83 8 0 4 47 47 104 96 111 94 145
126 130 126 -5 0 -30 -16 -56 -35z"/>
<path d="M973 813 c15 -2 37 -2 50 0 12 2 0 4 -28 4 -27 0 -38 -2 -22 -4z"/>
<path d="M2100 805 c-10 -12 -10 -15 2 -15 8 0 24 -9 36 -20 12 -12 22 -17 22
-11 0 19 66 17 86 -3 10 -10 14 -16 8 -13 -7 4 -17 1 -23 -7 -9 -10 -5 -13 16
-11 34 1 41 20 14 37 -12 7 -21 18 -21 24 0 6 -21 14 -47 17 -27 2 -55 8 -64
11 -9 4 -21 0 -29 -9z"/>
<path d="M1866 758 c5 -23 1 -30 -18 -37 -20 -7 -23 -15 -23 -65 0 -45 3 -56
16 -56 18 0 34 58 25 88 -4 13 4 20 32 30 52 19 135 31 145 22 5 -4 9 -25 9
-46 0 -22 5 -54 10 -72 8 -28 14 -33 32 -28 11 3 25 6 30 6 5 0 2 8 -6 18 -17
19 -29 102 -15 102 5 0 7 6 4 14 -3 8 -1 17 6 20 13 5 -9 26 -28 26 -5 0 -4
-4 3 -9 11 -7 10 -10 -3 -15 -29 -11 -36 -7 -26 13 10 17 5 18 -95 17 l-105
-1 7 -27z"/>
<path d="M2808 784 c-10 -17 -3 -59 10 -58 41 3 43 4 32 17 -6 6 -17 21 -24
31 -7 10 -15 15 -18 10z"/>
<path d="M3150 751 c0 -7 6 -13 13 -15 6 -2 35 -11 62 -20 77 -25 98 -19 25 8
-36 13 -73 27 -82 31 -11 4 -18 3 -18 -4z"/>
<path d="M3915 740 c3 -5 13 -10 21 -10 8 0 12 5 9 10 -3 6 -13 10 -21 10 -8
0 -12 -4 -9 -10z"/>
<path d="M4351 741 c-9 -6 -4 -10 18 -13 24 -4 28 -2 20 9 -13 15 -19 16 -38
4z"/>
<path d="M4262 680 c0 -27 4 -50 9 -50 5 0 9 23 9 50 0 28 -4 50 -9 50 -6 0
-10 -22 -9 -50z"/>
<path d="M3160 653 c0 -40 3 -73 7 -73 3 0 14 7 24 16 16 14 16 18 4 31 -8 8
-15 26 -15 41 0 15 -5 34 -10 42 -7 10 -10 -7 -10 -57z"/>
<path d="M4003 685 c0 -22 2 -30 4 -17 2 12 2 30 0 40 -3 9 -5 -1 -4 -23z"/>
<path d="M4033 635 c-1 -47 2 -85 6 -85 9 0 23 148 15 161 -14 23 -19 3 -21
-76z"/>
<path d="M4310 686 c0 -37 5 -42 28 -27 19 12 11 55 -10 59 -15 3 -18 -4 -18
-32z"/>
<path d="M2000 669 c0 -24 5 -51 10 -59 6 -10 7 3 3 40 -7 69 -13 77 -13 19z"/>
<path d="M4430 685 c-19 -14 -49 -30 -67 -36 -18 -6 -31 -15 -28 -20 4 -5 -8
-9 -24 -9 -28 0 -30 -2 -19 -19 12 -20 24 -21 48 -6 8 5 28 17 44 25 15 9 28
20 28 25 -1 6 11 17 26 25 15 8 28 21 30 28 3 15 4 16 -38 -13z"/>
<path d="M3422 666 c-35 -13 -65 -26 -67 -27 -9 -10 22 -74 38 -77 14 -3 17 4
17 43 0 51 2 53 83 65 28 4 44 8 35 9 -9 0 -22 3 -30 5 -7 3 -41 -6 -76 -18z"/>
<path d="M4074 656 c-19 -15 -19 -15 1 -30 19 -14 19 -15 2 -16 -22 0 -17 -24
5 -28 9 -2 23 4 31 13 17 17 47 20 47 5 0 -5 -5 -10 -11 -10 -5 0 -7 -5 -3
-12 5 -8 2 -9 -9 -5 -10 3 -17 2 -17 -2 0 -5 5 -11 12 -13 6 -2 8 -10 4 -16
-9 -16 -46 -16 -46 0 0 9 -3 9 -11 1 -8 -8 -125 -10 -392 -8 -313 3 -372 2
-327 -8 30 -7 60 -15 66 -19 17 -11 552 -11 607 0 27 5 56 8 66 5 22 -6 60 26
66 55 2 12 7 26 10 32 3 5 -7 13 -22 16 -25 7 -25 8 -8 15 16 6 14 8 -12 8
-25 1 -31 5 -27 16 8 19 -6 19 -32 1z"/>
<path d="M170 625 c7 -8 20 -15 28 -15 13 0 12 3 -4 15 -25 19 -40 19 -24 0z"/>
<path d="M3245 604 c-22 -8 -44 -19 -49 -24 -15 -15 16 -12 39 4 11 7 34 18
50 24 17 6 23 10 15 11 -8 0 -33 -7 -55 -15z"/>
<path d="M130 581 c21 -12 90 -25 70 -13 -8 5 -31 12 -50 15 -22 4 -29 3 -20
-2z"/>
<path d="M1840 569 c0 -32 193 -53 264 -29 20 6 35 15 31 18 -8 8 -295 19
-295 11z"/>
<path d="M2285 554 c11 -3 50 -11 87 -20 97 -22 749 -29 788 -9 15 8 29 13 31
12 3 -1 2 1 -1 5 -3 3 -212 8 -465 11 -253 3 -451 3 -440 1z"/>
<path d="M176 499 c-19 -15 -24 -25 -17 -32 7 -7 16 -3 30 14 35 41 28 50 -13
18z"/>
</g>
</svg>
